<svg xmlns="http://www.w3.org/2000/svg" width="233.493" height="110.592" viewBox="0 0 233.493 110.592">
  <g id="グループ_500" data-name="グループ 500" transform="translate(-568.253 2543.592)">
    <path id="パス_490" data-name="パス 490" d="M-93.587-19.6q0-3.036-.115-5.957t-.253-5.957q.6.092,1.15.161a8.892,8.892,0,0,0,1.1.069,8.893,8.893,0,0,0,1.1-.069q.552-.069,1.15-.161-.138,3.036-.253,5.957t-.115,5.957q0,5.8.046,10.051t.092,7.613q3.266,0,6.256-.069a59.263,59.263,0,0,0,6.44-.529,5.349,5.349,0,0,0-.23,1.38,4.3,4.3,0,0,0,.23,1.242Q-79.1,0-81.213,0H-89.7q-2.047,0-4.255.092.138-2.852.253-5.8t.115-5.98Zm51.2-6.3a11.964,11.964,0,0,0-1.725-1.656A12.444,12.444,0,0,0-46.414-29a14.377,14.377,0,0,0-2.806-1.012,13.335,13.335,0,0,0-3.289-.391,15.764,15.764,0,0,0-5.313.874A11.335,11.335,0,0,0-62.1-26.841a12.609,12.609,0,0,0-2.852,4.6,18.942,18.942,0,0,0-1.035,6.6,18.839,18.839,0,0,0,.92,6.072,12.236,12.236,0,0,0,2.691,4.577,11.948,11.948,0,0,0,4.324,2.875A15.56,15.56,0,0,0-52.279-1.1q.966,0,2.024-.092t2.047-.276a14.658,14.658,0,0,0,1.84-.46,6.728,6.728,0,0,0,1.449-.644q.046-1.38.069-2.76t.023-2.806q0-1.61-.069-3.22t-.161-3.082a11.26,11.26,0,0,0,2.208.23q.506,0,1.012-.046a4.9,4.9,0,0,0,.966-.184q-.092,1.058-.138,3.335t-.046,6q0,.92.023,1.863t.023,1.863q-.966.368-2.415.759a28.7,28.7,0,0,1-3.082.644q-1.633.253-3.266.46A23.777,23.777,0,0,1-52.739.69,25.605,25.605,0,0,1-60.122-.3a14.43,14.43,0,0,1-5.589-3.059A13.7,13.7,0,0,1-69.253-8.51a18.976,18.976,0,0,1-1.242-7.13,17.816,17.816,0,0,1,1.288-6.969,14.376,14.376,0,0,1,3.634-5.175A15.744,15.744,0,0,1-59.892-31a23.391,23.391,0,0,1,7.383-1.1,30.477,30.477,0,0,1,4.163.253,22.335,22.335,0,0,1,3.22.667,21.418,21.418,0,0,1,2.461.874q1.058.46,1.886.874a7.873,7.873,0,0,0-.667,1.656,10.619,10.619,0,0,0-.391,1.886ZM-17.5-5.888a9.215,9.215,0,0,0,.989,1.679A7.593,7.593,0,0,0-15-2.668,7.79,7.79,0,0,0-12.9-1.541a7.729,7.729,0,0,0,2.668.437A6.808,6.808,0,0,0-7.5-1.633a6.234,6.234,0,0,0,2.07-1.426A6.234,6.234,0,0,0-4.117-5.175a7.3,7.3,0,0,0,.46-2.6,4.938,4.938,0,0,0-1.081-3.358A8.933,8.933,0,0,0-7.429-13.2,31.547,31.547,0,0,0-10.9-14.72a17.888,17.888,0,0,1-3.473-1.725,9.214,9.214,0,0,1-2.691-2.645,7.65,7.65,0,0,1-1.081-4.324,8.734,8.734,0,0,1,.69-3.519,7.665,7.665,0,0,1,2-2.737A9.451,9.451,0,0,1-12.3-31.464a12.48,12.48,0,0,1,4.14-.644,12.278,12.278,0,0,1,3.818.529,9.514,9.514,0,0,1,2.99,1.633,9.906,9.906,0,0,0-.69,1.656q-.276.874-.552,2.208h-.552a11.668,11.668,0,0,0-.621-1.4,5.365,5.365,0,0,0-1.058-1.4,5.916,5.916,0,0,0-1.587-1.081,5.109,5.109,0,0,0-2.208-.437,6.572,6.572,0,0,0-2.369.414,5.676,5.676,0,0,0-1.886,1.173A5.184,5.184,0,0,0-14.122-27a5.966,5.966,0,0,0-.437,2.3,5.01,5.01,0,0,0,1.081,3.4A9.247,9.247,0,0,0-10.787-19.2a26.633,26.633,0,0,0,3.473,1.518,19.514,19.514,0,0,1,3.473,1.633A8.868,8.868,0,0,1-1.15-13.57,6.842,6.842,0,0,1-.069-9.522a10.618,10.618,0,0,1-.759,4A9.423,9.423,0,0,1-3.036-2.231,9.831,9.831,0,0,1-6.578-.069,13.91,13.91,0,0,1-11.339.69a11.873,11.873,0,0,1-4.623-.759,12.6,12.6,0,0,1-2.967-1.725A10.86,10.86,0,0,0-18.354-3.7q.161-.851.3-2.185ZM11.523-27.922q-.138,1.748-.207,3.427t-.161,3.381q.506,0,1.886-.023t2.99-.115a1.851,1.851,0,0,0-.046.506v.966a1.614,1.614,0,0,0,.046.46q-.6-.046-1.242-.069t-1.38-.023H11.155q-.046.184-.115,1.472t-.115,3.059q-.046,1.771-.069,3.7t-.023,3.45q0,1.288.069,2.53a7.584,7.584,0,0,0,.437,2.231,3.62,3.62,0,0,0,1.1,1.587,3.282,3.282,0,0,0,2.116.6,7.121,7.121,0,0,0,.989-.092,7.755,7.755,0,0,0,1.081-.23V0Q15.847.138,14.9.345a8.471,8.471,0,0,1-1.817.207A5.715,5.715,0,0,1,8.809-.874,5.79,5.79,0,0,1,7.429-5.06q0-1.242.046-2.691t.115-3.174q.069-1.725.115-3.818t.046-4.669H6.279q-.368,0-.782.023t-.874.069q.046-.276.069-.529t.023-.529q0-.23-.023-.46t-.069-.46q2.07.138,3.036.138-.046-.92-.069-2.3t-.115-2.852l3.818-1.61ZM28.681.138,27.37-3.082q-.805-1.978-1.725-4.163t-1.886-4.462q-.966-2.277-1.817-4.278T20.447-19.5q-.644-1.518-.966-2.254.6.092,1.1.161a7.482,7.482,0,0,0,1.012.069,7.482,7.482,0,0,0,1.012-.069q.506-.069,1.1-.161,1.426,4.416,3.174,8.74t3.68,8.924q1.932-4.048,3.7-8.648t3.151-9.016a6.514,6.514,0,0,0,1.518.23,6.514,6.514,0,0,0,1.518-.23q-.322.644-1.035,2.185l-1.7,3.68q-.989,2.139-2.162,4.738T33.166-5.819Q31.947-3.082,30.751-.391T28.543,4.715q-1.012,2.415-1.771,4.37t-1.127,3.1a6.629,6.629,0,0,0-1.564-.23,6.629,6.629,0,0,0-1.564.23A93.307,93.307,0,0,0,28.681.138ZM48-21.344q0-1.564-.023-3.4t-.069-3.634q-.046-1.794-.115-3.427t-.161-2.783a12.378,12.378,0,0,0,2.07.23,12.378,12.378,0,0,0,2.07-.23q-.092,1.15-.161,2.783T51.5-28.382q-.046,1.794-.069,3.634t-.023,3.4v8.326q0,1.564.023,3.4T51.5-5.98q.046,1.794.115,3.4T51.773.092Q50.715,0,49.7,0t-2.07.092q.092-1.058.161-2.668t.115-3.4q.046-1.794.069-3.634t.023-3.4Zm22.172.6a5.067,5.067,0,0,0-2.875.782,6.706,6.706,0,0,0-1.932,1.955,9.311,9.311,0,0,0-1.15,2.576,13.641,13.641,0,0,0-.483,2.645q1.426.046,2.967.092t3.013.046q1.518,0,3.082-.046l3.036-.092a17.7,17.7,0,0,0-.207-2.622,8.182,8.182,0,0,0-.828-2.576,5.494,5.494,0,0,0-1.725-1.978A4.909,4.909,0,0,0,70.173-20.746ZM59.547-10.12q0-5.658,2.691-8.878t7.843-3.22a10.639,10.639,0,0,1,4.209.759,8.779,8.779,0,0,1,2.967,2.024,7.978,7.978,0,0,1,1.771,2.967,11.279,11.279,0,0,1,.575,3.634q0,.46-.023.9t-.069.9l-4.922-.092q-2.438-.046-4.922-.046-1.518,0-3.013.046l-3.013.092a3.811,3.811,0,0,0-.046.69v.6a10.414,10.414,0,0,0,.529,3.358A7.632,7.632,0,0,0,65.665-3.7a7.388,7.388,0,0,0,2.484,1.794,8.173,8.173,0,0,0,3.4.667,7.428,7.428,0,0,0,1.886-.253,10.715,10.715,0,0,0,1.886-.69A10.284,10.284,0,0,0,77.05-3.22a8.751,8.751,0,0,0,1.4-1.288l.23.138-.276,2.254A12.711,12.711,0,0,1,74.98-.23a11.824,11.824,0,0,1-4.255.782,12.946,12.946,0,0,1-4.531-.759,10.034,10.034,0,0,1-3.542-2.208,9.924,9.924,0,0,1-2.3-3.427A11.24,11.24,0,0,1,59.547-10.12Zm37.26-7.866a2.052,2.052,0,0,0-.9-.506,4.136,4.136,0,0,0-1.357-.23,3.875,3.875,0,0,0-1.978.506A4.6,4.6,0,0,0,91.1-16.859a6.466,6.466,0,0,0-.92,2.024,9.436,9.436,0,0,0-.322,2.507v5.06q0,3.082.023,4.715A22.73,22.73,0,0,0,90.045.092Q89.125,0,88.205,0q-1.012,0-1.932.092.138-1.564.161-4.255t.023-6.6v-1.472q0-1.794-.023-4.14t-.161-5.382q.506.092.966.161a6.51,6.51,0,0,0,.966.069,5.9,5.9,0,0,0,.874-.069q.46-.069.966-.161-.184,1.656-.207,2.622t-.023,1.84l.092.046q2.714-4.968,6.072-4.968a4.765,4.765,0,0,1,.713.046,3.639,3.639,0,0,1,.759.23,5.172,5.172,0,0,0-.276,1.679q-.046,1.127-.046,2.047Z" transform="translate(685 -2509)" fill="#fff"/>
    <path id="パス_489" data-name="パス 489" d="M-101.341-19.383a8.59,8.59,0,0,0-.351-2.73,3.089,3.089,0,0,0-1.073-1.541,4.053,4.053,0,0,0-1.872-.682,20.822,20.822,0,0,0-2.749-.156q-.117,5.3-.117,10.608.234.039.448.059t.41.019a5.288,5.288,0,0,0,3.939-1.384A5.75,5.75,0,0,0-101.341-19.383Zm-6.162,7.176v1.6q0,3.237.078,5.753t.234,4.933A12.393,12.393,0,0,0-108.634,0h-3.51a12.393,12.393,0,0,0-1.443.078q.156-2.418.234-4.933t.078-5.753v-5.3q0-3.237-.078-5.752t-.234-5.051q.663.078,1.443.136t1.755.059q1.053,0,2.4-.1t3.335-.1q1.482,0,2.535.078a14.493,14.493,0,0,1,1.813.234,6.389,6.389,0,0,1,1.326.41,6.681,6.681,0,0,1,1.072.6,6.324,6.324,0,0,1,1.853,2.126,6.29,6.29,0,0,1,.683,3.022,6.818,6.818,0,0,1-1.56,4.641,8.52,8.52,0,0,1-4.485,2.535Q-99.548-9.75-97.4-6.455t4.29,6.533Q-94.009,0-94.868,0H-98.4q-.877,0-1.774.078l-6.981-12.285Zm19.266-3.7q0-3.237-.078-5.752t-.234-5.051q1.755.039,3.471.117t3.471.078q2.886,0,5.129-.059t3.022-.136a6.975,6.975,0,0,0-.156,1.638,9.369,9.369,0,0,0,.039.975q.039.351.117.78-1.131-.078-2.477-.156t-2.613-.156q-1.268-.078-2.282-.117t-1.443-.039q-.156,2.145-.175,4.251t-.02,4.251q2.535-.039,4.583-.117t4.271-.195q-.117.663-.156,1.014a6.716,6.716,0,0,0-.039.741,3.7,3.7,0,0,0,.058.643q.059.331.137.955-4.446-.351-8.853-.351,0,1.248-.02,2.5t-.02,2.5q0,2.535.117,4.875,2.223,0,4.446-.117t4.485-.39q-.078.429-.117.78a9.369,9.369,0,0,0-.039.975,9.369,9.369,0,0,0,.039.975,2.893,2.893,0,0,0,.117.585Q-74.51.039-76.05.02T-80.281,0h-6.182q-.877,0-1.326.02t-.76.059q.156-2.418.234-4.933t.078-5.753Zm29.6-3.471q-1.014,2.34-1.911,4.621T-62.3-10.1h7.137q-.858-2.379-1.7-4.661T-58.637-19.383ZM-44.831.078Q-45.767,0-46.6,0H-49.92q-.838,0-1.657.078-.624-1.911-1.287-3.9t-1.4-3.978q-1.248-.039-2.5-.058t-2.5-.02q-1.014,0-2.028.02t-2.028.058q-.78,1.989-1.443,3.978t-1.209,3.9A5.57,5.57,0,0,0-66.885,0h-1.853a7.2,7.2,0,0,0-1.014.078Q-69.283-.936-68.5-2.73t1.716-4.056l2.008-4.856q1.072-2.594,2.145-5.245t2.106-5.226q1.033-2.574,1.891-4.8.39.078.741.136a4.505,4.505,0,0,0,.741.059,4.505,4.505,0,0,0,.741-.059q.351-.058.741-.136l2.672,7.1q1.424,3.783,2.867,7.43t2.808,6.922Q-45.962-2.184-44.831.078Zm11.349-7.839v2.34q0,1.131.02,2.067t.02,1.209q.585.039,1.4.078t2.028.039a8.718,8.718,0,0,0,6.981-3q2.574-3,2.574-9.087a13.529,13.529,0,0,0-.643-4.329A9.532,9.532,0,0,0-22.912-21.7a7.891,7.891,0,0,0-2.808-2.067,9,9,0,0,0-3.666-.722q-1.4,0-2.282.059t-1.774.136q0,.273-.02,1.209t-.02,2.106V-7.761Zm-5.772-8.151q0-3.237-.078-5.752t-.234-5.051q.663.078,1.443.136t1.755.059q1.287,0,2.886-.1t4.173-.1a28.477,28.477,0,0,1,6.1.6,12.554,12.554,0,0,1,4.738,2.048,9.454,9.454,0,0,1,3.081,3.881,15.062,15.062,0,0,1,1.092,6.142,15.277,15.277,0,0,1-1.073,5.85,13.455,13.455,0,0,1-2.925,4.465A12.648,12.648,0,0,1-22.581-.9a13.888,13.888,0,0,1-5.206.975q-2.925,0-4.992-.039T-36.367,0h-1.755a12.393,12.393,0,0,0-1.443.078q.156-2.418.234-4.933t.078-5.753Zm47.424-1.6q-.624,4.485-.936,8.853L6.61.078A5.684,5.684,0,0,0,5.674,0H3.861a5.57,5.57,0,0,0-.916.078Q4.192-6.63,5.167-13.26T6.961-26.715q.429.078.8.136a5.134,5.134,0,0,0,.8.059,5,5,0,0,0,.741-.059q.39-.058.819-.136,1.053,2.34,2.2,4.758t2.3,4.816q1.15,2.4,2.3,4.7t2.2,4.368q2.34-4.368,4.661-9.146t4.427-9.5a8.743,8.743,0,0,0,1.677.195,8.611,8.611,0,0,0,1.638-.195q.39,3.354.839,7.215t.877,7.547q.429,3.685.858,6.884t.78,5.148Q34.105,0,33.306,0H30.127q-.819,0-1.638.078-.195-4.017-.643-8.7T26.929-17.9h-.078q-2.223,4.6-4.368,9.048T18.232.078Q18.037.039,17.862.02a3.529,3.529,0,0,0-.741,0q-.175.019-.371.059Q14.644-4.29,12.558-8.658T8.248-17.511Zm54.366,3.393a15.3,15.3,0,0,0-.624-4.544,10.414,10.414,0,0,0-1.735-3.412,7.6,7.6,0,0,0-2.691-2.165A7.851,7.851,0,0,0,54.035-25a6.758,6.758,0,0,0-3.569.955,8.46,8.46,0,0,0-2.671,2.594,12.443,12.443,0,0,0-1.658,3.842,18.848,18.848,0,0,0-.565,4.7,18.033,18.033,0,0,0,.663,5.265,9.491,9.491,0,0,0,1.794,3.451A6.679,6.679,0,0,0,50.642-2.3a8.42,8.42,0,0,0,3.12.585,7.885,7.885,0,0,0,3.354-.741A7.567,7.567,0,0,0,59.9-4.719,11.91,11.91,0,0,0,61.815-8.58,18.891,18.891,0,0,0,62.537-14.118Zm-23.361.858a13.768,13.768,0,0,1,1.072-5.421,13.559,13.559,0,0,1,3.022-4.446,13.97,13.97,0,0,1,4.719-3,16.666,16.666,0,0,1,6.162-1.092,19.03,19.03,0,0,1,5.811.858,13.217,13.217,0,0,1,4.68,2.574,11.971,11.971,0,0,1,3.139,4.349A15.231,15.231,0,0,1,68.933-13.3a13.446,13.446,0,0,1-1.112,5.46A13.7,13.7,0,0,1,64.74-3.412a13.935,13.935,0,0,1-4.7,2.944A16.558,16.558,0,0,1,54.035.585a21.354,21.354,0,0,1-5.791-.76,12.4,12.4,0,0,1-4.719-2.457,11.874,11.874,0,0,1-3.179-4.329A15.433,15.433,0,0,1,39.176-13.26Zm48.087-6.123a8.59,8.59,0,0,0-.351-2.73,3.089,3.089,0,0,0-1.073-1.541,4.053,4.053,0,0,0-1.872-.682,20.822,20.822,0,0,0-2.749-.156q-.117,5.3-.117,10.608.234.039.448.059t.41.019A5.288,5.288,0,0,0,85.9-15.19,5.75,5.75,0,0,0,87.263-19.383ZM81.1-12.207v1.6q0,3.237.078,5.753T81.413.078A12.393,12.393,0,0,0,79.97,0H76.46a12.393,12.393,0,0,0-1.443.078q.156-2.418.234-4.933t.078-5.753v-5.3q0-3.237-.078-5.752t-.234-5.051q.663.078,1.443.136t1.755.059q1.053,0,2.4-.1t3.335-.1q1.482,0,2.535.078A14.493,14.493,0,0,1,88.3-26.4a6.389,6.389,0,0,1,1.326.41,6.681,6.681,0,0,1,1.072.6,6.324,6.324,0,0,1,1.853,2.126,6.29,6.29,0,0,1,.683,3.022A6.818,6.818,0,0,1,91.67-15.6a8.52,8.52,0,0,1-4.485,2.535Q89.056-9.75,91.2-6.455T95.492.078Q94.595,0,93.737,0h-3.53q-.877,0-1.774.078L81.452-12.207Zm19.266-3.7q0-3.237-.078-5.752t-.234-5.051q1.755.039,3.471.117T107-26.52q2.886,0,5.129-.059t3.022-.136a6.975,6.975,0,0,0-.156,1.638,9.366,9.366,0,0,0,.039.975q.039.351.117.78-1.131-.078-2.477-.156t-2.613-.156q-1.268-.078-2.282-.117t-1.443-.039q-.156,2.145-.175,4.251t-.02,4.251q2.535-.039,4.583-.117t4.271-.195q-.117.663-.156,1.014a6.716,6.716,0,0,0-.039.741,3.7,3.7,0,0,0,.059.643q.059.331.137.955-4.446-.351-8.853-.351,0,1.248-.02,2.5t-.02,2.5q0,2.535.117,4.875,2.223,0,4.446-.117t4.485-.39q-.078.429-.117.78a9.366,9.366,0,0,0-.039.975,9.366,9.366,0,0,0,.039.975,2.892,2.892,0,0,0,.117.585Q114.094.039,112.554.02T108.322,0h-6.181q-.877,0-1.326.02t-.76.059q.156-2.418.234-4.933t.078-5.753ZM-116.746,4H116.746V6H-116.746Z" transform="translate(685 -2439)" fill="#fff"/>
  </g>
</svg>
