<svg xmlns="http://www.w3.org/2000/svg" width="85.695" height="70.495" viewBox="0 0 85.695 70.495">
  <g id="グループ_666" data-name="グループ 666" transform="translate(-17249.152 3971.719)">
    <g id="パス_637" data-name="パス 637" transform="matrix(0.966, -0.259, 0.259, 0.966, 17249.152, -3941.225)" fill="none">
      <path d="M39,0C60.539,0,78,8.954,78,20S60.539,40,39,40,0,31.046,0,20,17.461,0,39,0Z" stroke="none"/>
      <path d="M 39 2 C 33.87730407714844 2 28.91247177124023 2.513504028320312 24.24338912963867 3.526248931884766 C 19.76902389526367 4.49676513671875 15.76262283325195 5.879989624023438 12.33547210693359 7.637493133544922 C 8.997627258300781 9.349212646484375 6.397636413574219 11.3174934387207 4.60772705078125 13.4876594543457 C 2.877365112304688 15.58562278747559 2 17.77669334411621 2 20 C 2 22.22330665588379 2.877365112304688 24.41437530517578 4.60772705078125 26.5123405456543 C 6.397636413574219 28.6825065612793 8.997627258300781 30.65078735351562 12.33547210693359 32.36250686645508 C 15.76262283325195 34.12001037597656 19.76902389526367 35.50323486328125 24.24338912963867 36.4737548828125 C 28.91247177124023 37.48649597167969 33.87730407714844 38 39 38 C 44.12269592285156 38 49.08753204345703 37.48649597167969 53.75659942626953 36.4737548828125 C 58.23096466064453 35.50323486328125 62.23737716674805 34.12001037597656 65.66452789306641 32.36250686645508 C 69.00236511230469 30.65078735351562 71.60235595703125 28.6825065612793 73.39227294921875 26.5123405456543 C 75.12263488769531 24.41437530517578 76 22.22330665588379 76 20 C 76 17.77669334411621 75.12263488769531 15.58562278747559 73.39227294921875 13.4876594543457 C 71.60235595703125 11.3174934387207 69.00236511230469 9.349212646484375 65.66452789306641 7.637493133544922 C 62.23737716674805 5.879989624023438 58.23096466064453 4.49676513671875 53.75659942626953 3.526248931884766 C 49.08753204345703 2.513504028320312 44.12269592285156 2 39 2 M 39 0 C 60.53909301757812 0 78 8.954305648803711 78 20 C 78 31.04569435119629 60.53909301757812 40 39 40 C 17.46089553833008 40 0 31.04569435119629 0 20 C 0 8.954305648803711 17.46089553833008 0 39 0 Z" stroke="none" fill="#daf400"/>
    </g>
    <path id="パス_638" data-name="パス 638" d="M-14.6-17.273h3.609V-3.105h8.555V0H-14.6ZM11.2-11.883a3.382,3.382,0,0,0-2-2.473,4.922,4.922,0,0,0-1.98-.387,4.3,4.3,0,0,0-3.428,1.576,7.164,7.164,0,0,0-1.342,4.74q0,3.188,1.453,4.512A4.772,4.772,0,0,0,7.2-2.59a4.269,4.269,0,0,0,2.977-1.049,4.534,4.534,0,0,0,1.43-2.748h-4V-9.27h7.2V0H12.416l-.363-2.156A8.277,8.277,0,0,1,10.178-.422,6.594,6.594,0,0,1,6.662.457,7.3,7.3,0,0,1,1.037-1.922,9.072,9.072,0,0,1-1.248-8.461a9.6,9.6,0,0,1,2.309-6.727,7.867,7.867,0,0,1,6.105-2.531,7.981,7.981,0,0,1,5.291,1.67,6.209,6.209,0,0,1,2.291,4.166ZM-37.244,18.668a3.547,3.547,0,0,0,.645,1.77A3.709,3.709,0,0,0-33.588,21.5a6.356,6.356,0,0,0,2.074-.281,2,2,0,0,0,1.512-2,1.479,1.479,0,0,0-.75-1.324,8.065,8.065,0,0,0-2.355-.809l-1.828-.41a11.552,11.552,0,0,1-3.727-1.324,4.212,4.212,0,0,1-1.746-3.738A4.992,4.992,0,0,1-38.72,7.758a7.135,7.135,0,0,1,4.957-1.535A7.537,7.537,0,0,1-29.105,7.67a5.167,5.167,0,0,1,2.021,4.2h-3.469a2.478,2.478,0,0,0-1.359-2.215,4.559,4.559,0,0,0-2.1-.434,3.916,3.916,0,0,0-2.227.563,1.791,1.791,0,0,0-.832,1.57,1.486,1.486,0,0,0,.82,1.383,10.041,10.041,0,0,0,2.25.715l2.977.715a7.7,7.7,0,0,1,2.953,1.254,4.223,4.223,0,0,1,1.547,3.527,4.978,4.978,0,0,1-1.811,3.932,7.586,7.586,0,0,1-5.115,1.564A8.3,8.3,0,0,1-38.756,22.9a5.121,5.121,0,0,1-1.934-4.236Zm11.333-4.945V11.344h1.781V7.781h3.3v3.563h2.074v2.379h-2.074v6.75a1.52,1.52,0,0,0,.2.979,2.194,2.194,0,0,0,1.219.193q.152,0,.322-.006t.334-.018v2.5l-1.582.059q-2.367.082-3.234-.82a2.442,2.442,0,0,1-.562-1.77V13.723Zm9.34,12.727.422.023a5.263,5.263,0,0,0,.937-.035,1.683,1.683,0,0,0,.75-.27,1.8,1.8,0,0,0,.545-.832,1.759,1.759,0,0,0,.205-.773L-18.4,11.227h3.715l2.789,9.422,2.637-9.422h3.551l-4.383,12.563a17.641,17.641,0,0,1-2,4.506q-.738.873-2.953.873-.445,0-.715-.006t-.809-.041ZM-.809,24h-3.34V6.727h3.34ZM7.008,13.641a2.268,2.268,0,0,0-1.8.727,3.627,3.627,0,0,0-.8,1.969H9.6a2.907,2.907,0,0,0-.8-2.01A2.493,2.493,0,0,0,7.008,13.641Zm0-2.754a6.694,6.694,0,0,1,2.871.6,5.03,5.03,0,0,1,2.109,1.887,6.437,6.437,0,0,1,.973,2.637,17.028,17.028,0,0,1,.105,2.531H4.324a3.174,3.174,0,0,0,1.207,2.7,2.843,2.843,0,0,0,1.664.48,2.4,2.4,0,0,0,1.676-.586,2.783,2.783,0,0,0,.621-.879H12.9a4.237,4.237,0,0,1-1.184,2.309,5.8,5.8,0,0,1-4.594,1.863,6.478,6.478,0,0,1-4.3-1.57Q.961,21.281.961,17.742a7.1,7.1,0,0,1,1.682-5.086A5.75,5.75,0,0,1,7.008,10.887Zm14.766.035q.094,0,.158.006t.287.018v3.422q-.316-.035-.562-.047t-.4-.012a2.77,2.77,0,0,0-2.707,1.313,5.106,5.106,0,0,0-.387,2.273V24H14.8V11.227h3.187v2.227a7.061,7.061,0,0,1,1.348-1.746A3.669,3.669,0,0,1,21.774,10.922Zm2.86,1.219a2.5,2.5,0,0,0,1.582-1.23,2.144,2.144,0,0,0,.2-1.043h-1.84V6.785h3.34V9.258a4.186,4.186,0,0,1-.861,2.789,4.067,4.067,0,0,1-2.42,1.324ZM32.5,19.922a2.23,2.23,0,0,0,.457,1.266,3.09,3.09,0,0,0,2.3.668,3.5,3.5,0,0,0,1.564-.293.983.983,0,0,0,.111-1.734,19.069,19.069,0,0,0-3.48-1.008,7.249,7.249,0,0,1-3.059-1.348,2.922,2.922,0,0,1-.891-2.3,3.984,3.984,0,0,1,1.389-3.041,5.577,5.577,0,0,1,3.908-1.271,7.17,7.17,0,0,1,3.9.955,4.091,4.091,0,0,1,1.729,3.3H37.08a1.976,1.976,0,0,0-.363-1.02,2.286,2.286,0,0,0-1.875-.68,2.694,2.694,0,0,0-1.553.34.978.978,0,0,0-.463.8.872.872,0,0,0,.492.832,21.307,21.307,0,0,0,3.48.926,6.393,6.393,0,0,1,2.988,1.418,3.219,3.219,0,0,1,.984,2.4,3.882,3.882,0,0,1-1.412,3.1,6.634,6.634,0,0,1-4.365,1.2,6.571,6.571,0,0,1-4.447-1.271,4.137,4.137,0,0,1-1.436-3.24ZM-18.756,48.336a7.961,7.961,0,0,1-2.712-.4,18.536,18.536,0,0,1-1.9-.8,1.237,1.237,0,0,0-1.164-.18,2.765,2.765,0,0,0-.9,1.044h-.408l1.536-6.72h.5a7.1,7.1,0,0,0,.192,2.688A4.274,4.274,0,0,0-22.6,45.756a4.024,4.024,0,0,0,1.572,1,5.639,5.639,0,0,0,1.86.312,3.66,3.66,0,0,0,2.376-.756,2.448,2.448,0,0,0,.936-2,2.894,2.894,0,0,0-.228-1.2,2.63,2.63,0,0,0-.66-.888,4.828,4.828,0,0,0-1.02-.684q-.588-.3-1.308-.588a8.437,8.437,0,0,1-3.18-2.016,4.6,4.6,0,0,1-1.14-3.264,4.8,4.8,0,0,1,.4-1.956,4.539,4.539,0,0,1,1.128-1.56,5.245,5.245,0,0,1,1.776-1.032,6.937,6.937,0,0,1,2.34-.372,7.259,7.259,0,0,1,2.616.4,10.49,10.49,0,0,1,1.632.78q.768.48,1.128.288a2.871,2.871,0,0,0,.864-1.152h.408l-1.536,6.672h-.528a7.538,7.538,0,0,0-.084-2.7,4.278,4.278,0,0,0-.852-1.764,3.207,3.207,0,0,0-1.4-.96,5.332,5.332,0,0,0-1.764-.288,3.407,3.407,0,0,0-2.256.684,2.273,2.273,0,0,0-.816,1.836,2.508,2.508,0,0,0,.78,1.956,7.38,7.38,0,0,0,2.22,1.284,16.094,16.094,0,0,1,1.788.84,6.167,6.167,0,0,1,1.44,1.08,4.594,4.594,0,0,1,.96,1.452A5.026,5.026,0,0,1-12.8,43.1a5.063,5.063,0,0,1-.48,2.268A4.745,4.745,0,0,1-14.592,47a5.8,5.8,0,0,1-1.9,1A7.515,7.515,0,0,1-18.756,48.336ZM6.228,36.216a1.884,1.884,0,0,1,1.356.492,2.163,2.163,0,0,1,.516,1.62,8.491,8.491,0,0,1-.528,2.712A18.23,18.23,0,0,1,6.12,44.184a24.45,24.45,0,0,1-2.16,3.144,21.046,21.046,0,0,1-2.64,2.748,13.651,13.651,0,0,1-2.928,1.956,6.78,6.78,0,0,1-2.988.744,2.554,2.554,0,0,1-1.332-.336,1.28,1.28,0,0,1-.564-1.2,1.966,1.966,0,0,1,.36-1.128A1.174,1.174,0,0,1-5.1,49.584a1.863,1.863,0,0,1,1.284.54,4.837,4.837,0,0,1,1,1.308A11.418,11.418,0,0,0-.228,49.8q-.336-2.688-.828-5.5T-2.2,38.88q-.12-.456-.2-.768a1.283,1.283,0,0,0-.276-.528H-5.724L-7.4,44.856a2.989,2.989,0,0,0-.084,1.584.812.812,0,0,0,.876.552,2.878,2.878,0,0,0,1.284-.36A4.624,4.624,0,0,0-3.9,45.384l.48.456a10.675,10.675,0,0,1-.792.936,5.251,5.251,0,0,1-.972.8,4.753,4.753,0,0,1-1.224.552,5.322,5.322,0,0,1-1.524.2,2.363,2.363,0,0,1-2.34-1.116,4.531,4.531,0,0,1-.108-3.06l1.536-6.576H-10.4l.264-1.032h1.7l3.048-3.384h.672l-.768,3.384H.78q.528,2.568.972,5.3t.66,5.352A19.667,19.667,0,0,0,4.6,44.184,14.639,14.639,0,0,0,6.06,40.8a9.6,9.6,0,0,1-.984-1.416,3.112,3.112,0,0,1-.456-1.56,1.607,1.607,0,0,1,.42-1.188A1.607,1.607,0,0,1,6.228,36.216Zm5.04,12.072a2.473,2.473,0,0,1-1.26-.276,1.57,1.57,0,0,1-.672-.768,2.839,2.839,0,0,1-.18-1.188,8.217,8.217,0,0,1,.216-1.536l2.784-11.928a2.79,2.79,0,0,0,.084-.468.444.444,0,0,0-.108-.324.966.966,0,0,0-.408-.252,6.3,6.3,0,0,0-.864-.228l.12-.48,4.872-.96L12.276,45.5q-.24,1.008.132,1.356t1.74-.06l.12.48a4.014,4.014,0,0,1-1.416.756A5.356,5.356,0,0,1,11.268,48.288Zm14.784-9.312a3.13,3.13,0,0,1-.648,1.968,4.936,4.936,0,0,1-1.716,1.38,8.707,8.707,0,0,1-2.436.78,13.434,13.434,0,0,1-2.784.192q-.024.216-.036.42t-.012.42a4.214,4.214,0,0,0,.468,2.112,1.781,1.781,0,0,0,1.692.816,4.375,4.375,0,0,0,2.064-.5,5.973,5.973,0,0,0,1.7-1.344l.5.552A5.865,5.865,0,0,1,22.4,47.76a7.346,7.346,0,0,1-2.832.576,4.489,4.489,0,0,1-3.216-1.092A4.275,4.275,0,0,1,15.2,43.992,7.8,7.8,0,0,1,15.78,41a8.091,8.091,0,0,1,1.572-2.472A7.508,7.508,0,0,1,19.68,36.84a6.621,6.621,0,0,1,2.844-.624,5.573,5.573,0,0,1,1.332.156,3.428,3.428,0,0,1,1.128.492,2.487,2.487,0,0,1,.78.852A2.552,2.552,0,0,1,26.052,38.976Zm-3.816-1.608a1.948,1.948,0,0,0-1.152.42A4.787,4.787,0,0,0,20,38.928a8.079,8.079,0,0,0-.876,1.656,10.642,10.642,0,0,0-.564,1.944,6.77,6.77,0,0,0,2.088-.516,5.12,5.12,0,0,0,1.476-.96,4.034,4.034,0,0,0,.888-1.212,3.062,3.062,0,0,0,.3-1.3,1.349,1.349,0,0,0-.252-.852A.985.985,0,0,0,22.236,37.368Z" transform="translate(17292 -3954)"/>
  </g>
</svg>
